# xmcd
#
# Track frame offsets:
#	150
#	11970
#	23961
#	43326
#	57719
#	74251
#	86826
#	102982
#	119273
#	132247
#
# Disc length: 1938 seconds
#
# Revision: 0
# Processed by: cddbd v1.4PL0 Copyright (c) Steve Scherf et al.
# Submitted via: EasyCDDAExtractor 4.6.0.1
#
DISCID=9507900a
DTITLE=La Mississipi - Palacio de pulgas
DYEAR=1900
DGENRE=Blues
TTITLE0=Ahora Vengo
TTITLE1=El Fierro
TTITLE2=Ella
TTITLE3=Cancion Del Pescador
TTITLE4=Ojos De Piedra
TTITLE5=Bueno, bueno, bueno
TTITLE6=Mono
TTITLE7=No Preguntes
TTITLE8=Busco Una Cancion
TTITLE9=Abrime Negra
EXTD=
EXTT0=
EXTT1=
EXTT2=
EXTT3=
EXTT4=
EXTT5=
EXTT6=
EXTT7=
EXTT8=
EXTT9=
PLAYORDER=
